<?xml version="1.0" encoding="utf-8"?>
<!-- Generator: Adobe Illustrator 24.1.1, SVG Export Plug-In . SVG Version: 6.00 Build 0)  -->
<svg version="1.1" id="Layer_1" xmlns="http://www.w3.org/2000/svg" xmlns:xlink="http://www.w3.org/1999/xlink" x="0px" y="0px"
	 viewBox="0 0 1500 1500" style="enable-background:new 0 0 1500 1500;" xml:space="preserve">
<style type="text/css">
	.st0{fill:#F1662B;}
	.st1{fill-rule:evenodd;clip-rule:evenodd;fill:#F1662B;}
	.st2{fill:url(#SVGID_1_);}
	.st3{opacity:0.1;}
	.st4{font-family:'Gotham-Bold';}
	.st5{font-size:47.3522px;}
	.st6{fill:url(#SVGID_2_);}
</style>
<g>
	<g>
		<path d="M633,768.5h40.5v15.7H615v-73.7h56.3v15.7H633v14.6h31.8v15.3H633V768.5z"/>
		<path d="M723.2,705.4h18v78.9h-18v-2.4c-4.7,2.3-9.6,3.5-14.7,3.5c-8.1,0-14.7-2.7-20.3-8.2c-5.5-5.5-8.3-12.7-8.3-21.3
			c0-8.9,2.7-16.1,8.2-21.4c5.5-5.3,12.3-8.1,20.4-8.1c5.1,0,10,1.2,14.7,3.5V705.4z M723.2,765.4v-19.4c-3.2-2.6-7.1-3.9-11.4-3.9
			c-8.3,0-14.1,5.8-14.1,13.6c0,8.3,5.8,13.5,14.1,13.5C716.1,769.3,720,768,723.2,765.4z"/>
		<path d="M789.6,727.3h18.1v56.9h-18.1v-2.6c-4,2.4-8.3,3.6-13,3.6c-8.8,0-15.1-2-18.8-6.1c-3.7-4.1-5.5-11-5.5-20.5v-31.3h18v31.3
			c0,7.4,2.9,10.7,9.6,10.7c3.9,0,7.1-1.2,9.7-3.5V727.3z"/>
		<path d="M851.9,741.8V757h-34.1v-15.3H851.9z"/>
		<path d="M891.7,752.9l18.4-42.4h20.3L896,784.2h-8.5l-34.3-73.7h20.1L891.7,752.9z"/>
		<path d="M935.4,712.7c0-5.5,4.6-10.1,10-10.1c5.5,0,9.9,4.6,9.9,10.1c0,5.8-4.4,10.1-9.9,10.1C940,722.8,935.4,718.2,935.4,712.7z
			 M936.6,784.2v-56.9h18v56.9H936.6z"/>
		<path d="M1002.4,741.9h-14v15.7c0,5.2,0.4,8.7,1.4,10.2c0.9,1.6,3.1,2.3,6.6,2.3c0.7,0,1.9,0,3.2-0.1c1.5-0.1,2.3-0.2,2.6-0.2
			v13.1c-3,1.6-7.8,2.3-14.2,2.3c-10.1,0-17.6-6.6-17.6-18.4v-24.9h-7.4v-14.5h7.4v-22h18v22h14V741.9z"/>
		<path d="M1051.8,727.3h18.1v56.9h-18.1v-3.3c-4.6,2.8-9.5,4.3-14.7,4.3c-8.7,0-15.5-2.9-20.4-8.8c-4.9-5.9-7.4-12.8-7.4-20.7
			c0-8.1,2.5-15,7.4-20.7c4.9-5.9,11.7-8.8,20.4-8.8c4.9,0,9.8,1.3,14.7,3.9V727.3z M1051.8,746.1c-3.1-2.6-6.9-3.9-11.4-3.9
			c-4.3,0-7.6,1.4-10.1,4c-2.5,2.6-3.8,5.9-3.8,9.5c0,3.7,1.3,6.9,3.8,9.6c2.5,2.6,5.9,4,10.1,4c4.5,0,8.3-1.3,11.4-3.9V746.1z"/>
		<path d="M1135.8,760.8h-38.9c2.1,6.4,6.9,9.9,13.2,9.9c4.6,0,9.8-2.8,12.7-6.9l11.3,9.3c-5.3,7.5-14.6,12-25.8,12
			c-8.5,0-15.5-2.8-21-8.5c-5.5-5.6-8.3-12.7-8.3-20.9s2.7-15.3,8.3-20.9c5.5-5.8,12.6-8.6,21-8.6c8.7,0,15.4,2.8,20.3,8.5
			c4.9,5.6,7.4,13.1,7.4,22.2L1135.8,760.8z M1118.9,750.3c0-5.1-2.8-10-10.7-10c-5.5,0-9.9,4.2-11.3,10H1118.9z"/>
	</g>
	<g>
		<path class="st0" d="M690.8,852.2h3.2v10.9c0,4.7-2.2,7.7-6.6,7.7c-1.6,0-3.1-0.5-4.3-1.6c-1.2-1.1-1.9-2.5-2.1-4.1l2.8-0.3
			c0.4,1.8,1.7,3.1,3.6,3.1c2.1,0,3.5-1.6,3.5-3.9V852.2z"/>
		<path class="st0" d="M710.8,852c2.7,0,5,0.9,6.9,2.7c1.9,1.8,2.9,4.1,2.9,6.6s-1,4.8-2.9,6.6c-1.9,1.8-4.2,2.7-6.9,2.7
			c-2.7,0-5-0.9-6.9-2.7c-1.9-1.8-2.8-4.1-2.8-6.6s0.9-4.8,2.8-6.6C705.7,853,708.1,852,710.8,852z M715.3,856.9
			c-1.3-1.3-2.8-1.9-4.6-1.9s-3.3,0.6-4.6,1.9c-1.3,1.3-1.9,2.8-1.9,4.5c0,1.8,0.6,3.3,1.9,4.6c1.3,1.3,2.8,1.9,4.6,1.9
			s3.3-0.6,4.6-1.9c1.3-1.3,1.9-2.8,1.9-4.6C717.2,859.7,716.6,858.1,715.3,856.9z"/>
		<path class="st0" d="M731,852.2v18.4h-3.2v-18.4H731z"/>
		<path class="st0" d="M752.1,852.2h3.2v18.4h-1.6L742.2,858v12.6H739v-18.4h1.6l11.5,12.6V852.2z"/>
		<path class="st0" d="M765.9,867.7c0.7,0.7,0.7,1.9,0,2.6c-0.7,0.7-1.9,0.7-2.6,0c-0.7-0.7-0.7-1.9,0-2.6
			C764.1,867,765.2,867,765.9,867.7z M765.7,864.8h-2.1l-0.5-12.6h3.2L765.7,864.8z"/>
		<path class="st0" d="M789.6,868h9.7v2.6h-13v-18.4h3.2V868z"/>
		<path class="st0" d="M809.2,867.9h10.7v2.7h-13.9v-18.4h13.3v2.7h-10.2v5.5h8.5v2.6h-8.5V867.9z"/>
		<path class="st0" d="M841.1,870.6l-1.8-4.1h-8.7l-1.8,4.1h-3.4l8.7-18.4h1.6l8.7,18.4H841.1z M834.9,856.7l-3.2,7.2h6.4
			L834.9,856.7z"/>
		<path class="st0" d="M862.5,870.6l-3.8-5.1c-0.2,0-0.5,0-0.9,0H854v5.1h-3.2v-18.4h7.9c5.2,0,7.1,3.1,7.1,6.5
			c0,3.2-1.3,5.2-3.9,6.2l4.4,5.8H862.5z M854,854.9v8h3.7c3.1,0,4.7-1.5,4.7-4.1c0-2.3-1.3-4-4.2-4H854z"/>
		<path class="st0" d="M886,852.2h3.2v18.4h-1.6L876.1,858v12.6h-3.2v-18.4h1.6l11.5,12.6V852.2z"/>
		<path class="st0" d="M899.8,867.7c0.7,0.7,0.7,1.9,0,2.6c-0.7,0.7-1.9,0.7-2.6,0c-0.7-0.7-0.7-1.9,0-2.6
			C898,867,899.1,867,899.8,867.7z M899.6,864.8h-2.1l-0.5-12.6h3.2L899.6,864.8z"/>
		<path class="st0" d="M934.2,870.6l-1.8-4.1h-8.7l-1.8,4.1h-3.4l8.7-18.4h1.6l8.7,18.4H934.2z M928.1,856.7l-3.2,7.2h6.4
			L928.1,856.7z"/>
		<path class="st0" d="M956.8,865.3l2.5,2c-1.8,2.2-4.6,3.5-7.6,3.5c-2.7,0-5-0.9-6.9-2.7c-1.9-1.9-2.8-4.1-2.8-6.6s0.9-4.8,2.8-6.6
			c1.9-1.9,4.2-2.8,6.9-2.8c3,0,5.8,1.3,7.6,3.5l-2.5,2c-1.2-1.6-3-2.6-5.1-2.6c-1.8,0-3.3,0.6-4.5,1.8c-1.2,1.2-1.9,2.8-1.9,4.6
			s0.6,3.4,1.9,4.6c1.3,1.2,2.8,1.8,4.5,1.8C953.8,867.9,955.6,866.9,956.8,865.3z"/>
		<path class="st0" d="M978.5,852.2h3.1v18.4h-3.1v-6.6h-9.2v6.6h-3.1v-18.4h3.1v9.1h9.2V852.2z"/>
		<path class="st0" d="M992.9,852.2v18.4h-3.2v-18.4H992.9z"/>
		<path class="st0" d="M1004,867.9h10.7v2.7h-13.9v-18.4h13.3v2.7H1004v5.5h8.5v2.6h-8.5V867.9z"/>
		<path class="st0" d="M1029.8,865.3l5.9-13.1h3.5l-8.6,18.4h-1.5l-8.6-18.4h3.5L1029.8,865.3z"/>
		<path class="st0" d="M1048.8,867.9h10.7v2.7h-13.9v-18.4h13.3v2.7h-10.2v5.5h8.5v2.6h-8.5V867.9z"/>
		<path class="st0" d="M1069.3,867.7c0.7,0.7,0.7,1.9,0,2.6c-0.7,0.7-1.9,0.7-2.6,0c-0.7-0.7-0.7-1.9,0-2.6
			C1067.5,867,1068.6,867,1069.3,867.7z M1069.1,864.8h-2.1l-0.5-12.6h3.2L1069.1,864.8z"/>
	</g>
	<g>
		<rect x="616.8" y="817.5" class="st1" width="134.7" height="7.1"/>
		<rect x="1001.2" y="817.5" class="st1" width="134" height="7.1"/>
	</g>
	<g>
		<g>
			<linearGradient id="SVGID_1_" gradientUnits="userSpaceOnUse" x1="469.7105" y1="616.8152" x2="469.7105" y2="748.1724">
				<stop  offset="0" style="stop-color:#FAAF40"/>
				<stop  offset="0.1778" style="stop-color:#FAAC3C"/>
				<stop  offset="0.3471" style="stop-color:#F8A231"/>
				<stop  offset="0.51" style="stop-color:#F6921E"/>
				<stop  offset="0.83" style="stop-color:#F05A28"/>
				<stop  offset="0.9347" style="stop-color:#ED3125"/>
				<stop  offset="1" style="stop-color:#EC1C24"/>
			</linearGradient>
			<path class="st2" d="M468.7,748.2c0,0,0.4-20.8-12.3-41.3c-12.7-20.5-4.4-44.2-4.4-44.2s1.6,25.7,12.7,37.6
				c0,0-11.5-30.1-7.9-42.7c3.6-12.7,17.8-30.5,10.3-40.8c0,0,25.7,39.2,15.8,63.3c0,0,4-5.1,4-9.1c0,0,8.7,19.2-2.8,41.5
				C474.6,731.2,476.4,738.4,468.7,748.2z"/>
			<path class="st3" d="M483.6,713.5L483.6,713.5c-7.7,3.9-11.9,20.4-11.9,20.4c-2.8-12.5-14.8-26.1-14.8-26.1l0,0
				c12.1,20.2,11.7,40.3,11.7,40.3C476.3,738.5,474.7,731.4,483.6,713.5z"/>
		</g>
		<g>
			<path d="M509.6,754.5c-25.5,10-42.7,30.3-44.3,32.3c-0.1,0.1-0.2,0.1-0.2,0c-32.7-67.8-84.9-74.7-87.9-75c-0.1,0-0.1,0.1-0.1,0.1
				v112.6c0,0,0,0.1,0.1,0.1c31.6,23.1,52.8,46.1,66.2,63.7c0.1,0.1,0.2,0,0.2-0.1l-5.4-70.5c0-0.1,0.1-0.2,0.2-0.1l52,14.4
				c0.1,0,0.1,0.1,0.1,0.2l-16,74.1c0,0.1,0.1,0.2,0.2,0.1c31.3-27.1,87.6-23.3,90.6-23.1c0.1,0,0.1,0,0.1-0.1l12-135.3
				c0-0.1,0-0.1-0.1-0.1C561.7,746.1,535.5,744.3,509.6,754.5z M491.6,826.1l-53.8-14.7c-0.1,0-0.1-0.1-0.1-0.1l-0.7-8.7
				c0-0.1,0.1-0.2,0.2-0.1l56.2,15.6c0.1,0,0.1,0.1,0.1,0.2l-1.7,7.9C491.8,826,491.7,826.1,491.6,826.1z M494.6,812.1l-58-15.9
				c-0.1,0-0.1-0.1-0.1-0.1l-0.8-11.1c0-0.1,0.1-0.2,0.2-0.1l61.3,15.7c0.1,0,0.1,0.1,0.1,0.2l-2.5,11.3
				C494.8,812.1,494.7,812.1,494.6,812.1z"/>
			<path d="M466.2,774.8c0,0,32-46.2,97.5-38.6c-4.8-4.8-13.7-12.4-13.7-12.4s-52-4.9-82.7,39.9c0,0-21.7-48.2-66.6-65.3l-12.8,7.3
				C387.9,705.7,434,711.8,466.2,774.8z"/>
			<path d="M476.8,847.9l-6.9,62.9c-1.6,1.2-3,2.2-7.3,7.4l7.6-71c0.1-0.8,0.5-1.6,1.1-2.1c0.6-0.5,1.4-0.8,2.2-0.8
				C475.5,844.2,477,846,476.8,847.9z"/>
			<path d="M455.4,905.6c-1.9-3-4.1-6.3-6.7-10l-1.2-54.9v-0.1c0-1.7,1.2-3.1,2.9-3.3c2-0.3,3.7,1.3,3.7,3.2L455.4,905.6z"/>
		</g>
	</g>
</g>
<text transform="matrix(1 0 0 1 776.7963 834.1216)" class="st4 st5">Services</text>
</svg>
